HIERARCHY
ROOT pelvis
{
	OFFSET 0.00 0.00 0.00
	CHANNELS 6 Xposition Yposition Zposition Zrotation Xrotation Yrotation
	JOINT lfemur
	{
		OFFSET 0 9.44381 0
		CHANNELS 3 Zrotation Xrotation Yrotation
		JOINT ltibia
		{
			OFFSET 0 0 -42.4523
			CHANNELS 3 Zrotation Xrotation Yrotation
			JOINT lfoot
			{
				OFFSET 0 0 -42.0313
				CHANNELS 3 Zrotation Xrotation Yrotation
				JOINT ltoes
				{
					OFFSET 10.6461 0 -1.87394
					CHANNELS 3 Zrotation Xrotation Yrotation
				}
			}
		}
	}
	JOINT rfemur
	{
		OFFSET 0 -9.44381 0
		CHANNELS 3 Zrotation Xrotation Yrotation
		JOINT rtibia
		{
			OFFSET 0 0 -43.7747
			CHANNELS 3 Zrotation Xrotation Yrotation
			JOINT rfoot
			{
				OFFSET 0 0 -39.1074
				CHANNELS 3 Zrotation Xrotation Yrotation
				JOINT rtoes
				{
					OFFSET 9.60148 0 -2.68335
					CHANNELS 3 Zrotation Xrotation Yrotation
				}
			}
		}
	}
	JOINT lowerback
	{
		OFFSET -5 -3.19874e-007 8.03409
		CHANNELS 3 Zrotation Xrotation Yrotation
		JOINT upperback
		{
			OFFSET 1.9154 0 17.1428
			CHANNELS 3 Zrotation Xrotation Yrotation
			JOINT lclavicle
			{
				OFFSET 0 0 23.2225
				CHANNELS 3 Zrotation Xrotation Yrotation
				JOINT lhumerus
				{
					OFFSET 0 15.5074 -3.90134
					CHANNELS 3 Zrotation Xrotation Yrotation
					JOINT lradius
					{
						OFFSET 0 0 -26.8057
						CHANNELS 3 Zrotation Xrotation Yrotation
						JOINT lhand
						{
							OFFSET -6.48223e-005 -5.61445e-005 -26.4309
							CHANNELS 3 Zrotation Xrotation Yrotation
						}
					}
				}
			}
			JOINT rclavicle
			{
				OFFSET 0 0 23.2225
				CHANNELS 3 Zrotation Xrotation Yrotation
				JOINT rhumerus
				{
					OFFSET 0 -15.5761 -4.04532
					CHANNELS 3 Zrotation Xrotation Yrotation
					JOINT rradius
					{
						OFFSET 0 0 -26.9025
						CHANNELS 3 Zrotation Xrotation Yrotation
						JOINT rhand
						{
							OFFSET 0 0 -25.0231
							CHANNELS 3 Zrotation Xrotation Yrotation
						}
					}
				}
			}
			JOINT LowerNeck
			{
				OFFSET 0 0 23.2225
				CHANNELS 3 Zrotation Xrotation Yrotation
				JOINT Neck
				{
					OFFSET -4.46188 0.196104 10.555
					CHANNELS 3 Zrotation Xrotation Yrotation
				}
			}
		}
	}
}
MOTION
Frames: 19
Frame Time: 0.0416667
6.03425	16.3237	87.492	94.2635	-0.303495	-5.84896	2.24524	2.05198	0.0154391	6.93936	1.86221	14.949	-0.213016	-0.041936	-3.85778	-0	0	6.0967	2.42186	-0.837124	1.41324	-25.3275	-6.23707	12.9282	-1.08427	-0.218611	-3.60088	-0	0	7.6504	0.757011	-0.566864	12.9809	-2.30419	0.820609	-5.61947	-2.81363	-4.9089	-0.240959	-5.51553	25.6757	2.55135	1.49793	-0.922407	-31.6173	-0	-6.1952	-0.78	4.57576	6.18119	-0.493723	8.62928	-22.8556	6.46095	-10.4732	6.23627	-30.4402	-0	2.5954	-3.9332	4.7365	7.84149	40.0977	0.753587	-10.3253	-77.6016
6.03425	16.3237	87.492	94.2635	-0.303495	-5.84896	2.24524	2.05198	0.0154391	6.93936	1.86221	14.949	-0.213016	-0.041936	-3.85778	-0	0	6.0967	2.42186	-0.837124	1.41324	-25.3275	-6.23707	12.9282	-1.08427	-0.218611	-3.60088	-0	0	7.6504	0.757011	-0.566864	12.9809	-2.30419	0.820609	-5.61947	-2.81363	-4.9089	-0.240959	-5.51553	25.6757	2.55135	1.49793	-0.922407	-31.6173	-0	-6.1952	-0.78	4.57576	6.18119	-0.493723	8.62928	-22.8556	6.46095	-10.4732	6.23627	-30.4402	-0	2.5954	-3.9332	4.7365	7.84149	40.0977	0.753587	-10.3253	-77.6016
6.03425	16.3237	87.492	94.2472	-0.302902	-5.85539	2.25264	2.05403	0.0290043	6.94465	1.86256	14.9407	-0.212916	-0.0419364	-3.85948	-0	0	6.1006	2.42165	-0.837604	1.41856	-25.3149	-6.23418	12.9296	-1.07838	-0.217423	-3.60393	-0	0	7.6485	0.755466	-0.566287	12.9761	-2.30406	0.822747	-5.62809	-2.7916	-4.92108	-0.239661	-5.50516	25.6511	2.5738	1.45615	-0.894505	-31.5556	-0	-6.247	-0.7691	4.57302	6.17872	-0.49323	8.60935	-22.842	6.47254	-10.4487	6.21898	-30.431	-0	2.6528	-3.9411	4.73107	7.84484	40.1145	0.749493	-10.2887	-77.5804
6.03425	16.3237	87.492	94.2316	-0.301178	-5.8646	2.25945	2.05456	0.0473539	6.95533	1.86369	14.9271	-0.214712	-0.0423201	-3.85819	-0	0	6.0999	2.42395	-0.838183	1.42722	-25.3092	-6.2319	12.9283	-1.07019	-0.215734	-3.60416	-0	0	7.6485	0.755761	-0.569629	12.9755	-2.30662	0.829995	-5.63518	-2.76387	-4.93838	-0.238109	-5.49699	25.6235	2.59604	1.45311	-0.890658	-31.4989	-0	-6.2623	-0.7676	4.57146	6.17285	-0.492595	8.6179	-22.827	6.49248	-10.4511	6.2171	-30.4176	-0	2.6516	-3.9368	4.72323	7.84021	40.1348	0.741746	-10.2429	-77.5736
6.03425	16.3237	87.492	94.219	-0.301676	-5.87116	2.26465	2.0573	0.0606697	6.9628	1.86438	14.917	-0.216009	-0.0425293	-3.85909	-0	0	6.1001	2.42504	-0.836664	1.43408	-25.3038	-6.22913	12.9258	-1.0638	-0.214423	-3.6048	-0	0	7.6496	0.753919	-0.569296	12.9723	-2.30997	0.834077	-5.64368	-2.73944	-4.95416	-0.236754	-5.48138	25.5932	2.61844	1.4429	-0.882435	-31.4423	-0	-6.2947	-0.7619	4.57063	6.16967	-0.492252	8.61493	-22.8135	6.50921	-10.4323	6.20354	-30.4093	-0	2.668	-3.9365	4.71448	7.84158	40.1479	0.732271	-10.2069	-77.5541
6.03425	16.3237	87.492	94.2087	-0.303347	-5.87542	2.26946	2.06107	0.0695554	6.96894	1.86507	14.9095	-0.216807	-0.0426679	-3.86109	-0	0	6.1007	2.42673	-0.833817	1.43889	-25.3004	-6.2265	12.9225	-1.05772	-0.213203	-3.60495	-0	0	7.6496	0.750718	-0.568703	12.9673	-2.31392	0.838886	-5.65135	-2.71411	-4.96925	-0.235274	-5.46731	25.5577	2.64077	1.4339	-0.874923	-31.384	-0	-6.3341	-0.7537	4.57141	6.16707	-0.49213	8.61721	-22.8008	6.52774	-10.4183	6.1931	-30.4017	-0	2.687	-3.9349	4.70404	7.8426	40.1667	0.719047	-10.1752	-77.548
6.03425	16.3237	87.492	94.2003	-0.305655	-5.88015	2.27327	2.06561	0.0779451	6.97233	1.86516	14.9033	-0.215609	-0.0424419	-3.86289	-0	0	6.1014	2.42782	-0.830051	1.44446	-25.2989	-6.224	12.9183	-1.05143	-0.211892	-3.6053	-0	0	7.6493	0.747418	-0.567526	12.9626	-2.31978	0.844098	-5.65688	-2.68616	-4.98245	-0.233464	-5.45971	25.5154	2.66434	1.4248	-0.867371	-31.3255	-0	-6.3704	-0.7457	4.57411	6.16495	-0.492253	8.62455	-22.789	6.54775	-10.4148	6.18943	-30.3954	-0	2.7065	-3.9309	4.69278	7.84174	40.1908	0.700938	-10.144	-77.5579
6.03425	16.3237	87.492	94.1945	-0.308158	-5.88527	2.27678	2.07053	0.0856297	6.97298	1.86466	14.8981	-0.214013	-0.0421489	-3.86308	-0	0	6.1014	2.42511	-0.826252	1.45066	-25.2961	-6.22081	12.9135	-1.04614	-0.210831	-3.60495	-0	0	7.6501	0.744503	-0.566839	12.9595	-2.32702	0.849796	-5.66108	-2.6578	-4.99395	-0.231527	-5.45971	25.4672	2.691	1.42377	-0.864831	-31.2694	-0	-6.3966	-0.7405	4.57631	6.16394	-0.492411	8.63482	-22.7788	6.56731	-10.413	6.18719	-30.3909	-0	2.7222	-3.9275	4.68132	7.84184	40.2123	0.682053	-10.1165	-77.57
6.03425	16.3237	87.492	94.1923	-0.311116	-5.89156	2.27829	2.07592	0.0926669	6.97281	1.86413	14.8944	-0.213214	-0.042001	-3.86358	-0	0	6.102	2.4223	-0.821633	1.45973	-25.294	-6.21623	12.9056	-1.04374	-0.210415	-3.60313	-0	0	7.6498	0.741875	-0.565957	12.9584	-2.33477	0.855229	-5.66488	-2.63314	-5.00304	-0.229793	-5.46177	25.4131	2.72005	1.42737	-0.865249	-31.2173	-0	-6.4237	-0.7359	4.57751	6.16333	-0.492492	8.6448	-22.769	6.58653	-10.4066	6.18297	-30.3895	-0	2.7371	-3.9291	4.67195	7.8417	40.23	0.665692	-10.09	-77.5808
6.03425	16.3237	87.492	94.1922	-0.314793	-5.89791	2.27899	2.0824	0.0995891	6.97218	1.86338	14.89	-0.214112	-0.0421415	-3.86328	-0	0	6.1027	2.42099	-0.815602	1.47056	-25.2959	-6.21104	12.8941	-1.04085	-0.20985	-3.60021	-0	0	7.6497	0.739436	-0.564111	12.959	-2.34182	0.859464	-5.67043	-2.61279	-5.01031	-0.228345	-5.46672	25.3542	2.75285	1.42017	-0.859188	-31.1674	-0	-6.4603	-0.7289	4.57803	6.16472	-0.492659	8.64985	-22.7602	6.60389	-10.3963	6.17619	-30.3876	-0	2.7535	-3.9327	4.66343	7.8408	40.2466	0.652159	-10.0632	-77.5906
6.03425	16.3237	87.492	94.1929	-0.31889	-5.90463	2.2784	2.08902	0.107554	6.97403	1.86303	14.8835	-0.217305	-0.0427292	-3.86239	-0	0	6.1035	2.41897	-0.809502	1.48349	-25.3006	-6.20501	12.8794	-1.03487	-0.208794	-3.59646	-0	0	7.6505	0.737677	-0.559794	12.9605	-2.34737	0.860858	-5.67622	-2.59645	-5.01537	-0.227144	-5.47607	25.2899	2.78916	1.40343	-0.847448	-31.1193	-0	-6.4984	-0.7217	4.57804	6.16622	-0.492779	8.65224	-22.7506	6.61997	-10.3857	6.16881	-30.3838	-0	2.7742	-3.9363	4.65535	7.84116	40.2623	0.638082	-10.0388	-77.5989
6.03425	16.3237	87.492	94.195	-0.323208	-5.91224	2.27691	2.09598	0.116439	6.9754	1.86255	14.877	-0.220199	-0.04334	-3.8608	-0	0	6.1037	2.41615	-0.803018	1.49888	-25.3076	-6.19819	12.8618	-1.02779	-0.207433	-3.5912	-0	0	7.6527	0.736111	-0.55453	12.9622	-2.35233	0.861013	-5.68006	-2.58191	-5.01962	-0.226061	-5.4892	25.2213	2.82682	1.38783	-0.836519	-31.0738	-0	-6.5354	-0.7152	4.57835	6.16721	-0.492892	8.65597	-22.7397	6.63579	-10.3771	6.16219	-30.3782	-0	2.7944	-3.9396	4.6475	7.84146	40.2727	0.624857	-10.0163	-77.5994
6.03425	16.3237	87.492	94.1989	-0.327925	-5.91882	2.27412	2.10313	0.122862	6.97643	1.86218	14.8721	-0.222295	-0.0438056	-3.859	-0	0	6.1037	2.41603	-0.795643	1.51479	-25.3188	-6.19088	12.841	-1.02191	-0.206326	-3.58425	-0	0	7.6537	0.734743	-0.548529	12.9633	-2.35728	0.86101	-5.68491	-2.57249	-5.02456	-0.225456	-5.50342	25.1501	2.86909	1.3718	-0.825527	-31.0331	-0	-6.5754	-0.7082	4.58117	6.16758	-0.493226	8.65852	-22.7279	6.65446	-10.36	6.15135	-30.3766	-0	2.8088	-3.9417	4.64037	7.84135	40.2835	0.611782	-9.99414	-77.5976
6.03425	16.3237	87.492	94.2028	-0.332079	-5.92314	2.27032	2.10918	0.126865	6.97824	1.862	14.867	-0.223692	-0.0440212	-3.8565	-0	0	6.1042	2.41601	-0.789296	1.52763	-25.3313	-6.18427	12.8207	-1.01453	-0.205006	-3.57759	-0	0	7.6546	0.733478	-0.542334	12.9622	-2.36004	0.860332	-5.69081	-2.5694	-5.02856	-0.225364	-5.51652	25.0741	2.91435	1.35601	-0.814727	-30.9931	-0	-6.6239	-0.7	4.58429	6.16696	-0.493513	8.66044	-22.7149	6.67372	-10.3399	6.13894	-30.3759	-0	2.8197	-3.9427	4.63353	7.8416	40.2945	0.599089	-9.97326	-77.5919
6.03425	16.3237	87.492	94.2068	-0.335366	-5.92651	2.26893	2.11458	0.129604	6.97783	1.86119	14.8616	-0.226387	-0.0446558	-3.85241	-0	0	6.1058	2.41269	-0.784442	1.53798	-25.3431	-6.17846	12.8026	-1.00436	-0.203062	-3.57071	-0	0	7.656	0.73202	-0.536192	12.9605	-2.36131	0.858563	-5.69818	-2.57001	-5.03046	-0.225502	-5.52952	24.9912	2.96346	1.33629	-0.801709	-30.9562	-0	-6.6848	-0.6895	4.58818	6.16394	-0.493693	8.66229	-22.6991	6.69387	-10.3192	6.12631	-30.3757	-0	2.8297	-3.9421	4.62679	7.84277	40.3043	0.586582	-9.95504	-77.5795
6.03425	16.3237	87.492	94.2105	-0.338886	-5.92927	2.26864	2.12017	0.131596	6.97607	1.86003	14.8564	-0.228683	-0.0451188	-3.84801	-0	0	6.1077	2.40828	-0.779682	1.54683	-25.352	-6.17246	12.7856	-0.99668	-0.201674	-3.56305	-0	0	7.6569	0.73105	-0.52964	12.9586	-2.36177	0.856911	-5.70545	-2.57	-5.03016	-0.225488	-5.55082	24.9021	3.01841	1.30796	-0.783811	-30.9275	-0	-6.751	-0.6778	4.59194	6.15693	-0.49354	8.6667	-22.6796	6.71524	-10.2976	6.1135	-30.3771	-0	2.8485	-3.9433	4.62038	7.8438	40.3125	0.573956	-9.939	-77.5631
6.03425	16.3237	87.492	94.2135	-0.342373	-5.93133	2.26754	2.12526	0.131335	6.97413	1.85917	14.8538	-0.228186	-0.0449683	-3.84401	-0	0	6.108	2.40317	-0.775147	1.55317	-25.3578	-6.16712	12.7717	-0.990798	-0.200555	-3.5564	-0	0	7.6586	0.730471	-0.524105	12.9562	-2.36075	0.855373	-5.71183	-2.56557	-5.02518	-0.224876	-5.5921	24.8065	3.0793	1.28735	-0.770733	-30.9038	-0	-6.8125	-0.667	4.59428	6.14754	-0.493041	8.67312	-22.6575	6.73611	-10.2791	6.10319	-30.381	-0	2.8736	-3.9425	4.6141	7.84645	40.318	0.562196	-9.92447	-77.5443
6.03425	16.3237	87.492	94.217	-0.347091	-5.93289	2.26455	2.13146	0.129098	6.97257	1.85878	14.854	-0.226391	-0.0447016	-3.84081	-0	0	6.1073	2.39867	-0.768973	1.55765	-25.361	-6.16246	12.7607	-0.98831	-0.200222	-3.54988	-0	0	7.6598	0.729017	-0.51728	12.953	-2.35864	0.85238	-5.71718	-2.5585	-5.01522	-0.223813	-5.65269	24.7055	3.14663	1.2731	-0.761627	-30.8848	-0	-6.8673	-0.6576	4.59359	6.13767	-0.492179	8.68155	-22.6344	6.75605	-10.2628	6.09505	-30.3883	-0	2.9006	-3.9417	4.60681	7.85042	40.3206	0.553303	-9.91142	-77.5225
6.03425	16.3237	87.492	94.222	-0.35164	-5.93286	2.26186	2.13744	0.123658	6.97075	1.85862	14.8566	-0.226591	-0.0446957	-3.83891	-0	0	6.1077	2.39356	-0.763263	1.55864	-25.3633	-6.15915	12.7528	-0.986719	-0.200019	-3.54417	-0	0	7.6599	0.726982	-0.511305	12.9487	-2.35693	0.849511	-5.72212	-2.54841	-5.00167	-0.222328	-5.72482	24.5988	3.21711	1.25415	-0.749869	-30.8709	-0	-6.9179	-0.649	4.59088	6.12663	-0.491006	8.6932	-22.6105	6.77575	-10.243	6.08564	-30.3994	-0	2.9271	-3.9413	4.59945	7.85534	40.3232	0.542704	-9.90027	-77.5037
